<mxfile host="app.diagrams.net" modified="2022-08-15T08:49:17.235Z" agent="5.0 (Macintosh; Intel Mac OS X 10_15_7) AppleWebKit/537.36 (KHTML, like Gecko) Chrome/104.0.0.0 Safari/537.36" etag="36ckA6cw_lBaqtU1WZLu" version="20.2.3" type="github">
  <diagram id="zf8hyJvz0gQ867herg3F" name="第 1 页">
    <mxGraphModel dx="1240" dy="718" grid="1" gridSize="10" guides="1" tooltips="1" connect="1" arrows="1" fold="1" page="1" pageScale="1" pageWidth="827" pageHeight="1169" math="0" shadow="0">
      <root>
        <mxCell id="0" />
        <mxCell id="1" parent="0" />
        <mxCell id="lte8g_VhHHl-59x8ocmp-12" style="edgeStyle=orthogonalEdgeStyle;rounded=0;orthogonalLoop=1;jettySize=auto;html=1;entryX=0.5;entryY=0;entryDx=0;entryDy=0;" edge="1" parent="1" source="lte8g_VhHHl-59x8ocmp-1" target="lte8g_VhHHl-59x8ocmp-4">
          <mxGeometry relative="1" as="geometry" />
        </mxCell>
        <mxCell id="lte8g_VhHHl-59x8ocmp-1" value="WriteThread::Writer w" style="rounded=0;whiteSpace=wrap;html=1;" vertex="1" parent="1">
          <mxGeometry x="70" y="140" width="180" height="40" as="geometry" />
        </mxCell>
        <mxCell id="lte8g_VhHHl-59x8ocmp-15" style="edgeStyle=orthogonalEdgeStyle;rounded=0;orthogonalLoop=1;jettySize=auto;html=1;" edge="1" parent="1" source="lte8g_VhHHl-59x8ocmp-4">
          <mxGeometry relative="1" as="geometry">
            <mxPoint x="160" y="340" as="targetPoint" />
          </mxGeometry>
        </mxCell>
        <mxCell id="lte8g_VhHHl-59x8ocmp-4" value="WriteThread::JoinBatchGroup" style="rounded=0;whiteSpace=wrap;html=1;" vertex="1" parent="1">
          <mxGeometry x="70" y="220" width="180" height="40" as="geometry" />
        </mxCell>
        <mxCell id="lte8g_VhHHl-59x8ocmp-13" style="edgeStyle=orthogonalEdgeStyle;rounded=0;orthogonalLoop=1;jettySize=auto;html=1;entryX=0.5;entryY=0;entryDx=0;entryDy=0;" edge="1" parent="1" source="lte8g_VhHHl-59x8ocmp-8" target="lte8g_VhHHl-59x8ocmp-9">
          <mxGeometry relative="1" as="geometry" />
        </mxCell>
        <mxCell id="lte8g_VhHHl-59x8ocmp-8" value="WriteThread::Writer w" style="rounded=0;whiteSpace=wrap;html=1;" vertex="1" parent="1">
          <mxGeometry x="350" y="140" width="180" height="40" as="geometry" />
        </mxCell>
        <mxCell id="lte8g_VhHHl-59x8ocmp-9" value="WriteThread::JoinBatchGroup" style="rounded=0;whiteSpace=wrap;html=1;" vertex="1" parent="1">
          <mxGeometry x="350" y="220" width="180" height="40" as="geometry" />
        </mxCell>
        <mxCell id="lte8g_VhHHl-59x8ocmp-14" style="edgeStyle=orthogonalEdgeStyle;rounded=0;orthogonalLoop=1;jettySize=auto;html=1;entryX=0.5;entryY=0;entryDx=0;entryDy=0;" edge="1" parent="1" source="lte8g_VhHHl-59x8ocmp-10" target="lte8g_VhHHl-59x8ocmp-11">
          <mxGeometry relative="1" as="geometry" />
        </mxCell>
        <mxCell id="lte8g_VhHHl-59x8ocmp-10" value="WriteThread::Writer w" style="rounded=0;whiteSpace=wrap;html=1;" vertex="1" parent="1">
          <mxGeometry x="620" y="140" width="180" height="40" as="geometry" />
        </mxCell>
        <mxCell id="lte8g_VhHHl-59x8ocmp-11" value="WriteThread::JoinBatchGroup" style="rounded=0;whiteSpace=wrap;html=1;" vertex="1" parent="1">
          <mxGeometry x="620" y="220" width="180" height="40" as="geometry" />
        </mxCell>
        <mxCell id="lte8g_VhHHl-59x8ocmp-16" value="&amp;nbsp;STATE_GROUP_LEADER" style="text;html=1;strokeColor=none;fillColor=none;align=center;verticalAlign=middle;whiteSpace=wrap;rounded=0;" vertex="1" parent="1">
          <mxGeometry x="160" y="290" width="160" height="30" as="geometry" />
        </mxCell>
        <mxCell id="lte8g_VhHHl-59x8ocmp-17" value="" style="rounded=0;whiteSpace=wrap;html=1;" vertex="1" parent="1">
          <mxGeometry x="70" y="340" width="180" height="300" as="geometry" />
        </mxCell>
        <mxCell id="lte8g_VhHHl-59x8ocmp-18" value="DBImpl::ProcessWrite( )" style="text;html=1;strokeColor=none;fillColor=none;align=center;verticalAlign=middle;whiteSpace=wrap;rounded=0;" vertex="1" parent="1">
          <mxGeometry x="85" y="340" width="150" height="30" as="geometry" />
        </mxCell>
      </root>
    </mxGraphModel>
  </diagram>
</mxfile>
